<svg xmlns="http://www.w3.org/2000/svg" version="1.1" width="100" height="100" viewBox="0 0 100 100"><rect x="0" y="0" width="100" height="100" fill="#ffffff"/><g transform="scale(4.762)"><g transform="translate(0,0)"><path fill-rule="evenodd" d="M8 0L8 4L9 4L9 5L8 5L8 7L9 7L9 5L10 5L10 7L11 7L11 5L12 5L12 7L13 7L13 2L12 2L12 1L13 1L13 0L12 0L12 1L11 1L11 2L10 2L10 1L9 1L9 0ZM9 3L9 4L10 4L10 3ZM11 3L11 4L12 4L12 3ZM0 8L0 9L2 9L2 8ZM4 8L4 10L2 10L2 11L1 11L1 10L0 10L0 13L1 13L1 12L2 12L2 13L3 13L3 12L2 12L2 11L5 11L5 9L7 9L7 8ZM12 8L12 11L11 11L11 10L10 10L10 9L9 9L9 10L8 10L8 11L9 11L9 12L10 12L10 13L12 13L12 14L11 14L11 17L12 17L12 18L11 18L11 20L10 20L10 18L9 18L9 19L8 19L8 21L9 21L9 20L10 20L10 21L11 21L11 20L12 20L12 18L13 18L13 16L14 16L14 18L15 18L15 19L14 19L14 20L15 20L15 19L16 19L16 20L17 20L17 19L16 19L16 18L17 18L17 17L16 17L16 16L14 16L14 15L17 15L17 16L18 16L18 18L21 18L21 17L20 17L20 16L18 16L18 12L20 12L20 13L19 13L19 14L20 14L20 15L21 15L21 12L20 12L20 11L21 11L21 10L20 10L20 9L21 9L21 8L17 8L17 9L16 9L16 8L15 8L15 9L13 9L13 8ZM15 9L15 10L16 10L16 9ZM17 9L17 10L18 10L18 11L20 11L20 10L18 10L18 9ZM6 10L6 11L7 11L7 10ZM9 10L9 11L10 11L10 10ZM13 10L13 11L14 11L14 13L13 13L13 12L12 12L12 13L13 13L13 14L12 14L12 16L13 16L13 15L14 15L14 13L15 13L15 11L14 11L14 10ZM16 11L16 13L17 13L17 11ZM5 12L5 13L7 13L7 12ZM8 13L8 14L9 14L9 15L8 15L8 17L9 17L9 15L10 15L10 14L9 14L9 13ZM15 17L15 18L16 18L16 17ZM18 19L18 21L21 21L21 19L20 19L20 20L19 20L19 19ZM0 0L0 7L7 7L7 0ZM1 1L1 6L6 6L6 1ZM2 2L2 5L5 5L5 2ZM14 0L14 7L21 7L21 0ZM15 1L15 6L20 6L20 1ZM16 2L16 5L19 5L19 2ZM0 14L0 21L7 21L7 14ZM1 15L1 20L6 20L6 15ZM2 16L2 19L5 19L5 16Z" fill="#000000"/></g></g></svg>